<svg width="240" height="87" viewBox="0 0 240 87" fill="none" xmlns="http://www.w3.org/2000/svg" aria-labelledby="MicroBlocksLearnTitile" role="img">
  <title id="MicroBlocksLearnTitile">MicroBlocks LEARN</title>
  <path d="M47.06 24.8h2.627V12.424h.37L52.519 24.8h4.475l2.463-12.376h.37V24.8h2.626V10.433h-5.028l-2.484 12.52h-.37l-2.483-12.52H47.06V24.8Z" fill="#2C2C2C"/>
  <path d="M65.918 13.43c.944 0 1.663-.657 1.663-1.642 0-.985-.719-1.642-1.663-1.642-.944 0-1.662.657-1.662 1.642 0 .985.718 1.642 1.662 1.642ZM64.625 24.8h2.587V14.62h-2.587V24.8Z" fill="#2C2C2C"/>
  <path d="M74.244 25.088c2.914 0 4.576-1.704 5.11-3.9l-2.504-.595c-.226 1.313-.985 2.196-2.545 2.196s-2.75-1.047-2.75-2.976v-.205c0-1.93 1.19-2.976 2.75-2.976s2.32.944 2.484 2.175l2.504-.533c-.431-2.258-2.135-3.941-5.05-3.941-2.955 0-5.274 1.909-5.274 5.234v.287c0 3.325 2.32 5.234 5.275 5.234Z" fill="#2C2C2C"/>
  <path d="M80.872 24.8h2.586v-5.788c0-1.436.944-2.134 2.257-2.134h1.273v-2.299h-1.231c-.945 0-1.684.37-1.97 1.19h-.37V14.62h-2.545V24.8Z" fill="#2C2C2C"/>
  <path d="M92.876 25.088c3.038 0 5.337-1.93 5.337-5.213v-.329c0-3.284-2.299-5.213-5.337-5.213-3.037 0-5.336 1.93-5.336 5.213v.329c0 3.283 2.299 5.213 5.336 5.213Zm0-2.3c-1.58 0-2.75-1.066-2.75-2.975v-.205c0-1.91 1.15-2.976 2.75-2.976 1.601 0 2.75 1.067 2.75 2.976v.205c0 1.909-1.17 2.976-2.75 2.976Z" fill="#2C2C2C"/>
  <path d="M99.492 24.8h7.47c2.566 0 4.352-1.395 4.352-3.797v-.205c0-2.052-1.376-2.853-2.279-3.1v-.369c.883-.266 2.196-1.067 2.196-3.058v-.205c0-2.237-1.724-3.633-4.351-3.633h-7.388v2.381h1.888v9.605h-1.888V24.8Zm4.597-8.456v-3.448h2.504c1.149 0 1.929.595 1.929 1.622v.205c0 1.026-.8 1.621-1.929 1.621h-2.504Zm0 5.993v-3.53h2.545c1.19 0 1.97.595 1.97 1.663v.205c0 1.067-.8 1.662-1.97 1.662h-2.545Z" fill="#2C2C2C"/>
  <path d="M112.998 24.8h2.586V10.433h-2.586V24.8Z" fill="#2C2C2C"/>
  <path d="M122.678 25.088c3.037 0 5.336-1.93 5.336-5.213v-.329c0-3.284-2.299-5.213-5.336-5.213-3.038 0-5.337 1.93-5.337 5.213v.329c0 3.283 2.299 5.213 5.337 5.213Zm0-2.3c-1.581 0-2.751-1.066-2.751-2.975v-.205c0-1.91 1.15-2.976 2.751-2.976s2.75 1.067 2.75 2.976v.205c0 1.909-1.17 2.976-2.75 2.976Z" fill="#2C2C2C"/>
  <path d="M134.567 25.088c2.915 0 4.577-1.704 5.111-3.9l-2.504-.595c-.226 1.313-.985 2.196-2.545 2.196s-2.75-1.047-2.75-2.976v-.205c0-1.93 1.19-2.976 2.75-2.976s2.319.944 2.483 2.175l2.504-.533c-.431-2.258-2.134-3.941-5.049-3.941-2.955 0-5.274 1.909-5.274 5.234v.287c0 3.325 2.319 5.234 5.274 5.234Z" fill="#2C2C2C"/>
  <path d="M141.196 24.8h2.586v-4.043h.369l3.571 4.043h3.325l-4.864-5.254 4.7-4.926h-3.366l-3.366 3.756h-.369v-7.943h-2.586V24.8Z" fill="#2C2C2C"/>
  <path d="M156.112 25.088c2.586 0 4.269-1.211 4.269-3.346 0-2.134-1.806-2.791-4.105-3.202l-.574-.102c-.944-.164-1.519-.431-1.519-1.088 0-.595.534-.965 1.519-.965.985 0 1.683.39 1.909 1.437l2.401-.739c-.472-1.642-2.032-2.75-4.31-2.75-2.422 0-4.023 1.129-4.023 3.14 0 2.012 1.765 2.812 3.9 3.202l.574.102c1.211.226 1.724.514 1.724 1.15 0 .636-.574 1.108-1.765 1.108-1.19 0-2.155-.451-2.422-1.888l-2.38.616c.348 2.134 2.134 3.325 4.802 3.325Z" fill="#2C2C2C"/>
  <path d="m167.196 27.583-.666-14.912 4.049-.181.52 11.65 6.029-.27.145 3.263-10.077.45Z" fill="#F58518"/>
  <path d="m179.54 23.827.32-14.924 10.755.23-.07 3.265-6.704-.143-.054 2.564 6.15.132-.07 3.265-6.15-.132-.055 2.565 6.674.143-.069 3.264-10.727-.23Z" fill="#E84C45"/>
  <path d="m196.871 27.588-4.364.279 3.965-15.21 5.528-.354 5.869 14.582-4.364.279-3.949-10.586-.116.007-2.569 11.003Zm-1.19-5.825 8.204-.525.194 3.026-8.205.525-.193-3.026Z" fill="#B1529A"/>
  <path d="m209.304 24.508.675-14.912 6.436.292c1.107.05 2.066.295 2.878.735a4.53 4.53 0 0 1 1.858 1.828c.427.778.616 1.697.568 2.755-.048 1.067-.327 1.957-.835 2.669-.504.711-1.192 1.235-2.063 1.57-.867.335-1.868.477-3.004.425l-3.844-.174.142-3.145 3.029.137c.476.022.884-.018 1.224-.12.345-.106.614-.286.805-.54.197-.253.304-.591.323-1.014.02-.427-.057-.778-.229-1.053a1.547 1.547 0 0 0-.752-.633c-.329-.146-.731-.23-1.207-.251l-1.427-.065-.529 11.679-4.048-.183Zm9.047-6.449 3.418 7.013-4.398-.2-3.331-7.008 4.311.195Z" fill="#009ECE"/>
  <path d="m237.584 13.024.671 14.912-3.379.152-5.74-7.592-.087.004.352 7.834-4.048.182-.671-14.911 3.437-.155 5.651 7.567.117-.005-.351-7.806 4.048-.182Z" fill="#01928B"/>
  <g filter="url(#filter0_d_60_13066)">
    <path d="M53.527 73.143c-3.552 4.96-9.81 9.956-17.871 10.803a30.154 30.154 0 0 1-14.802-2.124c-3.848-1.582-7.217-4.58-9.448-7.38-2.232-2.799-4.717-8.014-5.26-10.993-.544-2.978-.498-7.146.291-11.047.632-3.121 2.22-7.924 2.928-9.67-.752-1.745-2.16-4.97-2.697-6.57-.671-2-1.261-3.87-1.822-6.57-.586-2.826-1.001-5.14-.846-8.053.155-2.915 1.316-6.349 2.347-8.39C7.38 11.11 9.298 8.747 11 7.372s5.713-3.59 8.177-3.85c2.464-.259 2.624.828 3.003 2.675.745-.661 2.574-2.11 3.923-2.62 1.686-.638 4.421-1.385 6.991-1.518 2.57-.132 3.145.958 3.277 1.772.132.814-.724 3.204-1.39 5.206-.666 2.002-.473 4.282-.572 5.534-.099 1.253-.036 4.407.136 6.036.17 1.63.323 6.224-.177 10.888 6.242-.326 12.857 3.813 16.208 7.413 3.351 3.6 7.57 11.004 7.806 18.086.185 5.566-.935 10.68-4.854 16.15Z" fill="#FAFAFA"/>
  </g>
  <path d="M31.188 5.854c-2.893.402-12.397 3.88-11.449 12.898.596 5.669 2.272 12.836 4.178 17.503-2.629.567-4.832 1.223-6.677 1.96.749-4.038 1.09-8.096.6-12.76-1.76-16.737 3.09-18.433.62-18.174-2.47.26-12.759 7.003-10.796 19.244.87 5.423 3.66 12.977 5.549 16.458-2.702 6.05-4.605 11.583-3.994 17.398 1.319 12.548 12.6 21.659 25.183 20.336 12.582-1.322 21.723-12.58 20.404-25.127-.43-4.098-5.281-22.45-24.446-20.436.826-4.95.95-12.053.371-17.559-.978-9.308 3.69-12.082.655-11.763-.094.01-.106.008-.199.021l.001.001Z" fill="#fff"/>
  <path fill-rule="evenodd" clip-rule="evenodd" d="m31.231 5.088.06-.006c.382-.04.82-.058 1.19.084.215.083.432.23.585.469.147.23.187.473.19.666.003.345-.114.717-.219 1.017-.063.18-.145.4-.234.635-.063.168-.13.344-.193.519-.635 1.735-1.518 4.616-1.047 9.094.543 5.174.476 11.742-.212 16.679 9.264-.631 15.201 3.483 18.86 8.334 3.761 4.986 5.118 10.74 5.345 12.899 1.364 12.98-8.077 24.624-21.075 25.99-12.998 1.367-24.655-8.06-26.02-21.04-.62-5.913 1.266-11.499 3.88-17.413-1.915-3.688-4.573-10.994-5.427-16.322-1.023-6.386 1.151-11.355 3.897-14.744a19.62 19.62 0 0 1 4.225-3.893c.67-.45 1.306-.806 1.866-1.06.546-.249 1.07-.423 1.509-.47.163-.017.331-.03.486-.026.14.003.368.02.59.133.28.141.47.39.538.687.054.237.02.456-.008.587a7.174 7.174 0 0 1-.252.811l-.048.139c-.13.373-.288.84-.45 1.434-.65 2.361-1.416 6.852-.548 15.116.44 4.19.222 7.899-.355 11.522a44.231 44.231 0 0 1 4.436-1.263c-1.781-4.723-3.298-11.411-3.862-16.772-.51-4.862 1.815-8.238 4.585-10.406 2.71-2.121 5.904-3.141 7.494-3.373a2.601 2.601 0 0 1 .214-.027Zm.102 1.677a.82.82 0 0 1-.037.006c-1.31.182-4.255 1.097-6.736 3.039-2.449 1.916-4.384 4.773-3.95 8.908.588 5.593 2.244 12.665 4.108 17.236a.838.838 0 0 1-.6 1.137c-2.585.558-4.733 1.2-6.518 1.914a.841.841 0 0 1-1.14-.932c.735-3.97 1.066-7.935.587-12.49-.887-8.437-.115-13.142.598-15.736.177-.643.347-1.149.482-1.536-.15.051-.327.121-.53.213a11.53 11.53 0 0 0-1.623.925 17.937 17.937 0 0 0-3.856 3.557c-2.506 3.092-4.478 7.593-3.544 13.421.852 5.31 3.599 12.759 5.44 16.155.125.23.135.503.029.741-2.683 6.018-4.494 11.363-3.909 16.929C11.402 72.31 22.23 81.067 34.305 79.798 46.38 78.53 55.151 67.712 53.884 55.653c-.203-1.93-1.479-7.374-5.016-12.064-3.5-4.64-9.21-8.549-18.42-7.58a.841.841 0 0 1-.918-.973c.808-4.853.931-11.864.36-17.294-.505-4.81.45-7.956 1.14-9.846.08-.218.15-.404.214-.571.078-.209.146-.387.205-.558l.005-.013a5.04 5.04 0 0 1-.09.008l-.012.001-.019.002ZM18.88 8.18Zm-.507-.627Z" fill="#2C2C2C"/>
  <path fill-rule="evenodd" clip-rule="evenodd" d="M47.79 64.95a17.531 17.531 0 0 1-5.134 4.099 18.175 18.175 0 0 1-6.604 2c-2.39.25-4.715.03-6.875-.584a17.536 17.536 0 0 1-5.875-2.94l.783-.916a16.293 16.293 0 0 0 5.458 2.732c2.005.57 4.165.775 6.386.541a16.88 16.88 0 0 0 6.135-1.857 16.292 16.292 0 0 0 4.77-3.807l.957.733Z" fill="#2C2C2C"/>
  <path fill-rule="evenodd" clip-rule="evenodd" d="m36.864 66.083.514 7.246a.78.78 0 0 1-.509.803l-2.592.883c-.386.132-.804-.088-.94-.495L32 70.56l1.408-.516 1.088 3.229 1.346-.459-.47-6.632 1.49-.1Z" fill="#2C2C2C"/>
  <path fill-rule="evenodd" clip-rule="evenodd" d="m40.687 69.844.238 2.937c.036.444-.266.83-.676.864l-2.946.244-.139-1.614 2.204-.182-.173-2.135 1.492-.114Z" fill="#2C2C2C"/>
  <path d="m36.444 66.829-3.204-2.6 4.887-.615-1.683 3.215Z" fill="#2C2C2C"/>
  <path fill-rule="evenodd" clip-rule="evenodd" d="M38.43 63.493c.118.17.126.391.02.57l-1.717 2.886a.587.587 0 0 1-.84.17l-3.169-2.28a.526.526 0 0 1-.204-.574.57.57 0 0 1 .482-.401l4.885-.605a.575.575 0 0 1 .543.234Zm-3.9 1.277 1.537 1.106.832-1.4-2.368.294Z" fill="#2C2C2C"/>
  <path d="M29.854 62.517a1.834 1.834 0 0 0 .82-2.465 1.843 1.843 0 0 0-2.47-.817 1.834 1.834 0 0 0-.821 2.464 1.843 1.843 0 0 0 2.47.818Z" fill="#2C2C2C"/>
  <path d="M39.374 60.412a1.843 1.843 0 0 0 2.31-1.2 1.834 1.834 0 0 0-1.202-2.302 1.843 1.843 0 0 0-2.31 1.2 1.834 1.834 0 0 0 1.202 2.302Z" fill="#2C2C2C"/>
  <defs>
    <filter id="filter0_d_60_13066" x="1.967" y=".047" width="58.433" height="86.071" filterUnits="userSpaceOnUse" color-interpolation-filters="sRGB">
      <feFlood flood-opacity="0" result="BackgroundImageFix"/>
      <feColorMatrix in="SourceAlpha" values="0 0 0 0 0 0 0 0 0 0 0 0 0 0 0 0 0 0 127 0" result="hardAlpha"/>
      <feOffset/>
      <feGaussianBlur stdDeviation="1"/>
      <feColorMatrix values="0 0 0 0 0 0 0 0 0 0 0 0 0 0 0 0 0 0 0.5 0"/>
      <feBlend in2="BackgroundImageFix" result="effect1_dropShadow_60_13066"/>
      <feBlend in="SourceGraphic" in2="effect1_dropShadow_60_13066" result="shape"/>
    </filter>
  </defs>
</svg>
