<svg width="20" height="20" viewBox="0 0 20 20" fill="none" xmlns="http://www.w3.org/2000/svg">
<path fill-rule="evenodd" clip-rule="evenodd" d="M2.5 1V2.25H5.625V6.625C5.625 9.04125 7.58375 11 10 11C12.4162 11 14.375 9.04125 14.375 6.625V2.25H17.5V1H2.5ZM6.875 2.25H13.125V4.125H6.875V2.25ZM6.875 6.625C6.875 8.35089 8.27411 9.75 10 9.75C11.7259 9.75 13.125 8.35089 13.125 6.625V5.375H6.875V6.625ZM16.25 18.75H15V16.875C14.9979 15.15 13.6 13.7521 11.875 13.75H8.125C6.39997 13.7521 5.00207 15.15 5 16.875V18.75H3.75V16.875C3.75276 14.4599 5.7099 12.5028 8.125 12.5H11.875C14.2901 12.5028 16.2472 14.4599 16.25 16.875V18.75ZM2.5 4.375C2.5 4.02982 2.77982 3.75 3.125 3.75C3.47018 3.75 3.75 4.02982 3.75 4.375V10H2.5V4.375Z" fill="white"/>
</svg>
