<svg width="20" height="20" viewBox="0 0 20 20" fill="none" xmlns="http://www.w3.org/2000/svg">
<path fill-rule="evenodd" clip-rule="evenodd" d="M10 15C11.7549 14.997 13.3797 14.0743 14.2812 12.5688L13.2125 11.9438C12.5341 13.0703 11.3151 13.7592 10 13.7592C8.68491 13.7592 7.46592 13.0703 6.7875 11.9438L5.71875 12.5688C6.6203 14.0743 8.24515 14.997 10 15ZM10 1.25C5.16751 1.25 1.25 5.16751 1.25 10C1.25 14.8325 5.16751 18.75 10 18.75C14.8325 18.75 18.75 14.8325 18.75 10C18.75 7.67936 17.8281 5.45376 16.1872 3.81282C14.5462 2.17187 12.3206 1.25 10 1.25ZM10 2.5C12.9283 2.50457 15.5861 4.213 16.8063 6.875H15.625C15.625 6.52982 15.3452 6.25 15 6.25H5C4.65482 6.25 4.375 6.52982 4.375 6.875H3.19375C4.41387 4.213 7.07171 2.50457 10 2.5ZM2.5 10C2.5 14.1421 5.85786 17.5 10 17.5C14.1421 17.5 17.5 14.1421 17.5 10C17.4971 9.36689 17.4131 8.73676 17.25 8.125H15.625V9.375C15.625 10.0654 15.0654 10.625 14.375 10.625H12.325C11.7078 10.6335 11.1768 10.1901 11.075 9.58125L10.7312 7.5H9.26875L8.94375 9.58125C8.84196 10.1901 8.31098 10.6335 7.69375 10.625H5.625C4.93464 10.625 4.375 10.0654 4.375 9.375V8.125H2.75C2.58693 8.73676 2.50292 9.36689 2.5 10Z" fill="#FCFCFC"/>
</svg>
