<svg width="20" height="20" viewBox="0 0 20 20" fill="none" xmlns="http://www.w3.org/2000/svg">
<path fill-rule="evenodd" clip-rule="evenodd" d="M1.93685 18H18.1868C18.4053 18.0004 18.6081 17.8868 18.7218 17.7003C18.8355 17.5138 18.8436 17.2814 18.7431 17.0875L10.6181 1.46246C10.5112 1.25373 10.2964 1.12244 10.0618 1.12244C9.82732 1.12244 9.61253 1.25373 9.5056 1.46246L1.3806 17.0875C1.28012 17.2814 1.28819 17.5138 1.40189 17.7003C1.51558 17.8868 1.71841 18.0004 1.93685 18ZM17.1556 16.75H2.9681L10.0618 3.10621L17.1556 16.75ZM10 13.75C9.48223 13.75 9.0625 14.1697 9.0625 14.6875C9.0625 15.2053 9.48223 15.625 10 15.625C10.5178 15.625 10.9375 15.2053 10.9375 14.6875C10.9375 14.1697 10.5178 13.75 10 13.75ZM10.625 6.875H9.375V12.5H10.625V6.875Z" fill="white"/>
</svg>
